<?xml version="1.0" encoding="UTF-8"?>
<svg id="Layer_1" data-name="Layer 1" xmlns="http://www.w3.org/2000/svg" xmlns:xlink="http://www.w3.org/1999/xlink" viewBox="0 0 500 500">
  <defs>
    <style>
      .cls-1 {
        fill: url(#linear-gradient-2);
      }

      .cls-2 {
        fill: none;
        stroke: url(#linear-gradient);
        stroke-miterlimit: 10;
        stroke-width: 4.94px;
      }

      .cls-3 {
        fill: url(#linear-gradient-3);
      }
    </style>
    <linearGradient id="linear-gradient" x1="122.41" y1="221.53" x2="377.59" y2="221.53" gradientUnits="userSpaceOnUse">
      <stop offset="0" stop-color="#8c00d4"/>
      <stop offset="1" stop-color="#3fff96"/>
    </linearGradient>
    <linearGradient id="linear-gradient-2" x1="134.77" y1="221.54" x2="365.24" y2="221.54" gradientUnits="userSpaceOnUse">
      <stop offset="0" stop-color="#8c00d4"/>
      <stop offset="1" stop-color="#3fff96"/>
    </linearGradient>
    <linearGradient id="linear-gradient-3" x1="62.59" y1="400.02" x2="437.41" y2="400.02" gradientUnits="userSpaceOnUse">
      <stop offset="0" stop-color="#7844c4"/>
      <stop offset="1" stop-color="#41f997"/>
    </linearGradient>
  </defs>
  <g>
    <path class="cls-2" d="M356.45,189.3h-34.42v-27.16l-24.79-24.74h-58.37c2.62-4.79,4.15-10.17,4.15-15.9,0-18.32-14.91-33.29-33.29-33.29s-33.34,14.96-33.34,33.29c0,5.73,1.53,11.11,4.15,15.9h-1.68v105.39c-1.14,.2-2.27,.35-3.41,.35-9.93,0-17.98-8.1-17.98-18.03v-8.15h13.24l-13.24-22.72-1.33-2.37-31.26-54.13v90.13c0,13.33,5.93,26.12,16.2,35.11,9.33,8.3,21.58,12.84,34.37,12.84,1.14,0,2.27-.05,3.41-.15v33.34h56.5v45.83h115.02l24.74-24.79v-122.08l-18.67-18.67ZM209.73,122.98c-.79,0-1.48-.64-1.48-1.48,0-.79,.69-1.43,1.48-1.43s1.43,.69,1.43,1.43c0,.79-.64,1.48-1.43,1.48Z"/>
    <path class="cls-1" d="M312.45,258.5c1.12,3.41,0,6.89-3.12,9.06-1.07,.74-1.08,1.44-.83,2.5,1.04,4.39,1.94,8.81,3.04,13.18,.39,1.55-.03,1.87-1.47,1.79-1.79-.1-3.58-.02-5.38-.02-1.58,0-3.16-.09-4.73,.03-1.69,.13-2.26-.22-1.74-2.09,1.15-4.21,2.04-8.49,3.09-12.73,.28-1.15,.18-1.89-.95-2.66-3.13-2.13-4.25-5.65-3.14-9.05,1.05-3.24,4.26-5.5,7.72-5.45,3.4,.05,6.47,2.27,7.51,5.44Zm-114.62-111.21h-9.09v96.5c5.43-3.85,9.19-10.03,9.63-17.14,.05-.49,.05-1.04,.05-1.53s0-.99-.05-1.48v-76.1c-.2-.1-.35-.15-.54-.25Zm28.89,37.98h47.46v5.28h37.98v-24.3l-19.01-18.96h-71.56c-.2,.1-.35,.15-.54,.25v82.47c-.64,11.46-5.78,21.78-14.47,29.38-5.14,4.49-11.21,7.75-17.83,9.63v30.12h37.98v-47.46h11.85v-37.98h-11.85v-28.45Zm138.53,26.82v113.88l-18.96,19.01h-101.04V213.71h28.94v-14.52h78.18l12.89,12.89Zm-37.98,19.01h-47.46v75.91h47.46v-75.91Zm-138.52,32.74c-4.15,1.38-8.64,2.12-13.28,2.12-10.77,0-20.59-3.95-27.85-10.37-7.9-6.91-12.84-16.79-12.84-27.71v-53.29l12.84,22.22,1.28,2.27,4.64,8h-5.93v18.03c0,15.41,12.45,27.9,27.85,27.9,4.79,0,9.33-1.23,13.28-3.36h0c8.2-4.45,13.93-12.89,14.57-22.67,.05-.64,.05-1.23,.05-1.88,0-.59,0-1.23-.05-1.88v-75.95h0v-3.26c-9.83-2.77-17.04-11.8-17.04-22.52,0-12.89,10.52-23.41,23.46-23.41s23.41,10.52,23.41,23.41c0,10.72-7.21,19.75-17.04,22.52v85.98c-.59,10.12-5.38,19.16-12.79,25.63-4.15,3.61-9.09,6.47-14.57,8.2Zm20.99-130.97c6.22,0,11.31-5.09,11.31-11.36s-5.09-11.31-11.31-11.31-11.36,5.09-11.36,11.31,5.09,11.36,11.36,11.36Z"/>
  </g>
  <path class="cls-3" d="M73.48,388.6c1.09,0,2.11,.2,3.08,.6,.97,.4,1.83,.98,2.59,1.74,.76,.76,1.34,1.63,1.74,2.61,.4,.98,.6,2,.6,3.07s-.2,2.11-.6,3.08c-.4,.97-.98,1.83-1.74,2.59-.76,.76-1.63,1.34-2.59,1.75-.97,.4-2,.6-3.08,.6h-5.94v4.31c0,.7-.24,1.28-.72,1.76-.48,.48-1.06,.72-1.76,.72s-1.28-.24-1.76-.72c-.48-.48-.72-1.06-.72-1.76v-17.87c0-.69,.24-1.28,.72-1.76,.48-.48,1.06-.72,1.76-.72h8.41Zm-5.94,4.96v6.13h5.94c.41,0,.81-.08,1.19-.24,.38-.16,.71-.38,.98-.65,.27-.27,.49-.59,.65-.96,.16-.37,.24-.77,.24-1.21s-.08-.8-.24-1.17c-.16-.37-.38-.69-.65-.98-.27-.28-.6-.51-.98-.67-.38-.16-.78-.24-1.19-.24h-5.94Zm43.05-4.96c.7,0,1.28,.24,1.76,.72,.48,.48,.72,1.07,.72,1.76v17.87c0,.7-.24,1.28-.72,1.76-.48,.48-1.07,.72-1.76,.72s-1.28-.24-1.76-.72c-.48-.48-.72-1.06-.72-1.76v-6.46h-10.96v6.46c0,.7-.24,1.28-.72,1.76-.48,.48-1.06,.72-1.76,.72s-1.28-.24-1.76-.72c-.48-.48-.72-1.06-.72-1.76v-17.87c0-.69,.24-1.28,.72-1.76,.48-.48,1.06-.72,1.76-.72s1.28,.24,1.76,.72c.48,.48,.72,1.07,.72,1.76v6.46h10.96v-6.46c0-.69,.24-1.28,.72-1.76,.48-.48,1.06-.72,1.76-.72Zm15.46,.72c.48-.48,1.06-.72,1.76-.72s1.28,.24,1.76,.72c.48,.48,.72,1.07,.72,1.76v17.87c0,.7-.24,1.28-.72,1.76-.48,.48-1.06,.72-1.76,.72s-1.28-.24-1.76-.72c-.48-.48-.72-1.06-.72-1.76v-17.87c0-.69,.24-1.28,.72-1.76Zm19.04,.46c1.48-1.02,3.34-1.53,5.58-1.53,1.11,0,2.25,.12,3.42,.36s2.18,.54,3.03,.91c.63,.3,1.06,.77,1.3,1.4,.24,.63,.21,1.26-.1,1.89-.28,.63-.74,1.07-1.37,1.3-.63,.24-1.26,.22-1.89-.06-.54-.24-1.22-.44-2.04-.6-.82-.16-1.6-.24-2.36-.24-.59,0-1.13,.05-1.61,.16-.49,.11-.89,.27-1.19,.49-.41,.3-.62,.71-.62,1.21,0,.15,.03,.3,.08,.46,.05,.15,.22,.32,.51,.49,.24,.15,.6,.32,1.09,.49s1.18,.33,2.07,.46c2.48,.37,4.44,1.04,5.87,2.02,.89,.61,1.61,1.35,2.15,2.22,.57,.91,.85,1.97,.85,3.16s-.26,2.28-.78,3.26c-.52,.98-1.27,1.81-2.25,2.48-1.65,1.13-3.71,1.7-6.16,1.7-1.85,0-3.49-.27-4.92-.82-1.07-.41-2.07-.98-3-1.7-.54-.43-.86-.99-.95-1.66-.09-.67,.09-1.28,.52-1.83,.41-.54,.96-.86,1.63-.95,.67-.09,1.28,.09,1.83,.52,.2,.15,.44,.32,.73,.49,.29,.18,.64,.33,1.03,.47s.84,.26,1.35,.36,1.1,.15,1.78,.15c1.41,0,2.53-.27,3.36-.82,.59-.39,.88-.95,.88-1.66,0-.17-.04-.37-.13-.59-.09-.22-.32-.44-.68-.68-.3-.2-.75-.41-1.34-.64-.59-.23-1.4-.42-2.45-.57-2.13-.33-3.85-.89-5.15-1.7-.89-.59-1.58-1.28-2.05-2.09-.54-.87-.82-1.88-.82-3.03s.24-2.11,.72-3.02c.48-.9,1.17-1.66,2.09-2.27Zm44.65-1.17c.7,0,1.28,.24,1.76,.72,.48,.48,.72,1.07,.72,1.76v17.87c0,.7-.24,1.28-.72,1.76-.48,.48-1.07,.72-1.76,.72s-1.28-.24-1.76-.72c-.48-.48-.72-1.06-.72-1.76v-6.46h-10.96v6.46c0,.7-.24,1.28-.72,1.76-.48,.48-1.06,.72-1.76,.72s-1.28-.24-1.76-.72c-.48-.48-.72-1.06-.72-1.76v-17.87c0-.69,.24-1.28,.72-1.76,.48-.48,1.06-.72,1.76-.72s1.28,.24,1.76,.72c.48,.48,.72,1.07,.72,1.76v6.46h10.96v-6.46c0-.69,.24-1.28,.72-1.76,.48-.48,1.06-.72,1.76-.72Zm25.24,0c1.5,0,2.98,.3,4.44,.91,1.37,.59,2.58,1.4,3.62,2.45,.52,.52,.99,1.08,1.4,1.68,.41,.6,.76,1.25,1.04,1.94,.61,1.37,.91,2.85,.91,4.44s-.3,3.07-.91,4.44c-.28,.7-.63,1.34-1.04,1.94-.41,.6-.88,1.17-1.4,1.71-1.04,1.04-2.25,1.86-3.62,2.45-1.41,.59-2.89,.88-4.44,.88h-8.02c-.7,0-1.28-.24-1.76-.72-.48-.48-.72-1.06-.72-1.76v-17.87c0-.69,.24-1.28,.72-1.76,.48-.48,1.06-.72,1.76-.72h8.02Zm-5.54,4.96v12.91h5.54c.89,0,1.73-.17,2.51-.51,.78-.34,1.47-.8,2.05-1.39,.59-.59,1.05-1.27,1.39-2.05,.34-.78,.51-1.62,.51-2.51s-.17-1.73-.51-2.51c-.34-.78-.8-1.47-1.39-2.06-.59-.59-1.27-1.05-2.05-1.39-.78-.34-1.62-.51-2.51-.51h-5.54Zm45.26,13.63c.48,.48,.72,1.07,.72,1.76s-.24,1.28-.72,1.76-1.06,.72-1.76,.72h-12.85c-.7,0-1.28-.24-1.76-.72-.48-.48-.72-1.06-.72-1.76v-17.87c0-.69,.24-1.28,.72-1.76,.48-.48,1.06-.72,1.76-.72h12.85c.7,0,1.28,.24,1.76,.72s.72,1.07,.72,1.76-.24,1.28-.72,1.76c-.48,.48-1.06,.72-1.76,.72h-10.37v3.98h8.81c.69,0,1.28,.24,1.76,.72,.48,.48,.72,1.07,.72,1.76s-.24,1.28-.72,1.76-1.07,.72-1.76,.72h-8.81v3.98h10.37c.7,0,1.28,.24,1.76,.72Zm16.89-13.63v3.98h8.8c.7,0,1.28,.24,1.76,.72,.48,.48,.72,1.07,.72,1.76s-.24,1.28-.72,1.76-1.06,.72-1.76,.72h-8.8v6.46c0,.7-.24,1.28-.72,1.76-.48,.48-1.06,.72-1.76,.72s-1.28-.24-1.76-.72-.72-1.06-.72-1.76v-17.87c0-.69,.24-1.28,.72-1.76s1.06-.72,1.76-.72h12.85c.69,0,1.28,.24,1.76,.72,.48,.48,.72,1.07,.72,1.76s-.24,1.28-.72,1.76-1.07,.72-1.76,.72h-10.37Zm40.11,13.63c.48,.48,.72,1.07,.72,1.76s-.24,1.28-.72,1.76c-.48,.48-1.07,.72-1.76,.72h-12.85c-.7,0-1.28-.24-1.76-.72s-.72-1.06-.72-1.76v-17.87c0-.69,.24-1.28,.72-1.76s1.06-.72,1.76-.72h12.85c.69,0,1.28,.24,1.76,.72,.48,.48,.72,1.07,.72,1.76s-.24,1.28-.72,1.76-1.07,.72-1.76,.72h-10.37v3.98h8.8c.7,0,1.28,.24,1.76,.72,.48,.48,.72,1.07,.72,1.76s-.24,1.28-.72,1.76-1.06,.72-1.76,.72h-8.8v3.98h10.37c.69,0,1.28,.24,1.76,.72Zm13.57-18.43c.48-.17,.97-.2,1.47-.07,.5,.13,.92,.39,1.27,.78,1.22,1.48,2.46,2.98,3.72,4.5,.54,.65,1.11,1.33,1.7,2.04s1.18,1.42,1.79,2.14c.61,.72,1.21,1.43,1.81,2.14s1.18,1.38,1.75,2.01v-11.22c0-.69,.24-1.28,.72-1.76,.48-.48,1.06-.72,1.76-.72s1.28,.24,1.76,.72c.48,.48,.72,1.07,.72,1.76v17.87c0,.5-.15,.97-.44,1.4-.29,.44-.68,.74-1.16,.91-.5,.17-1,.2-1.5,.07-.5-.13-.91-.39-1.24-.78-1.24-1.48-2.49-2.98-3.75-4.5-1.09-1.3-2.26-2.69-3.51-4.16-1.25-1.47-2.43-2.85-3.54-4.16v11.22c0,.7-.24,1.28-.72,1.76-.48,.48-1.06,.72-1.76,.72s-1.28-.24-1.76-.72-.72-1.06-.72-1.76v-17.87c0-.5,.15-.97,.44-1.4,.29-.43,.69-.74,1.19-.91Zm41.22-.16c1.5,0,2.98,.3,4.44,.91,1.37,.59,2.58,1.4,3.62,2.45,.52,.52,.99,1.08,1.4,1.68s.76,1.25,1.04,1.94c.61,1.37,.91,2.85,.91,4.44s-.3,3.07-.91,4.44c-.28,.7-.63,1.34-1.04,1.94s-.88,1.17-1.4,1.71c-1.04,1.04-2.25,1.86-3.62,2.45-1.41,.59-2.89,.88-4.44,.88h-8.02c-.7,0-1.28-.24-1.76-.72s-.72-1.06-.72-1.76v-17.87c0-.69,.24-1.28,.72-1.76s1.06-.72,1.76-.72h8.02Zm-5.54,4.96v12.91h5.54c.89,0,1.73-.17,2.51-.51,.78-.34,1.47-.8,2.05-1.39,.59-.59,1.05-1.27,1.39-2.05,.34-.78,.51-1.62,.51-2.51s-.17-1.73-.51-2.51c-.34-.78-.8-1.47-1.39-2.06s-1.27-1.05-2.05-1.39c-.78-.34-1.62-.51-2.51-.51h-5.54Zm45.26,13.63c.48,.48,.72,1.07,.72,1.76s-.24,1.28-.72,1.76c-.48,.48-1.07,.72-1.76,.72h-12.85c-.7,0-1.28-.24-1.76-.72s-.72-1.06-.72-1.76v-17.87c0-.69,.24-1.28,.72-1.76s1.06-.72,1.76-.72h12.85c.69,0,1.28,.24,1.76,.72,.48,.48,.72,1.07,.72,1.76s-.24,1.28-.72,1.76-1.07,.72-1.76,.72h-10.37v3.98h8.8c.7,0,1.28,.24,1.76,.72,.48,.48,.72,1.07,.72,1.76s-.24,1.28-.72,1.76-1.06,.72-1.76,.72h-8.8v3.98h10.37c.69,0,1.28,.24,1.76,.72Zm30.52,.2c.48,.5,.7,1.09,.67,1.78-.03,.68-.3,1.25-.8,1.71-.5,.48-1.09,.7-1.78,.67-.68-.03-1.27-.3-1.75-.8l-5.58-6.1h-4.4v4.31c0,.7-.24,1.28-.72,1.76-.48,.48-1.06,.72-1.76,.72s-1.28-.24-1.76-.72-.72-1.06-.72-1.76v-17.87c0-.69,.24-1.28,.72-1.76s1.06-.72,1.76-.72h8.38c1.09,0,2.11,.2,3.08,.6,.97,.4,1.83,.98,2.59,1.74,.76,.76,1.34,1.63,1.75,2.61,.4,.98,.6,2,.6,3.07s-.2,2.11-.6,3.08c-.4,.97-.98,1.83-1.75,2.59-.24,.24-.48,.46-.73,.65-.25,.2-.51,.38-.77,.55l3.55,3.88Zm-13.63-7.7h5.9c.41,0,.81-.08,1.19-.24s.71-.38,.98-.65,.49-.59,.65-.96c.16-.37,.24-.77,.24-1.21s-.08-.8-.24-1.17c-.16-.37-.38-.69-.65-.98s-.6-.51-.98-.67c-.38-.16-.78-.24-1.19-.24h-5.9v6.13Z"/>
</svg>